<svg width="1024" height="1024" viewBox="0 0 1024 1024" fill="none" xmlns="http://www.w3.org/2000/svg">
<g clip-path="url(#clip0_17_226)">
<path d="M804 0H220C98.4974 0 0 98.4974 0 220V804C0 925.503 98.4974 1024 220 1024H804C925.503 1024 1024 925.503 1024 804V220C1024 98.4974 925.503 0 804 0Z" fill="url(#paint0_radial_17_226)"/>
<path d="M318 380.5C334.242 380.5 347.5 395.209 347.5 413.473V609.527C347.5 627.791 334.242 642.5 318 642.5C301.758 642.5 288.5 627.791 288.5 609.527V413.473C288.5 395.209 301.758 380.5 318 380.5Z" fill="#EE9A10" stroke="black"/>
<path d="M445 303.176C445 280.435 431.569 262 415 262C398.431 262 385 280.435 385 303.176V720.824C385 743.565 398.431 762 415 762C431.569 762 445 743.565 445 720.824V303.176Z" fill="#EE9A10"/>
<path d="M542 465.059C542 452.324 528.569 442 512 442C495.431 442 482 452.324 482 465.059V558.941C482 571.676 495.431 582 512 582C528.569 582 542 571.676 542 558.941V465.059Z" fill="#EE9A10"/>
<path d="M639 370C639 354.536 625.569 342 609 342C592.431 342 579 354.536 579 370V654C579 669.464 592.431 682 609 682C625.569 682 639 669.464 639 654V370Z" fill="#EE9A10"/>
<path d="M736 446.273C736 433.972 722.569 424 706 424C689.431 424 676 433.972 676 446.273V576.727C676 589.028 689.431 599 706 599C722.569 599 736 589.028 736 576.727V446.273Z" fill="#EE9A10"/>
<path d="M775 449C788.807 449 800 437.807 800 424C800 410.193 788.807 399 775 399C761.193 399 750 410.193 750 424C750 437.807 761.193 449 775 449Z" fill="#30C85A"/>
</g>
<defs>
<radialGradient id="paint0_radial_17_226" cx="0" cy="0" r="1" gradientUnits="userSpaceOnUse" gradientTransform="translate(512 512) scale(614.4)">
<stop stop-color="#080808"/>
</radialGradient>
<clipPath id="clip0_17_226">
<rect width="1024" height="1024" fill="white"/>
</clipPath>
</defs>
</svg>
